<svg width="640" height="480" xmlns="http://www.w3.org/2000/svg">
 <!-- Created with SVG-edit - http://svg-edit.googlecode.com/ -->
 <g>
  <title>Слой 1</title>
  <path id="svg_37" d="m2,0l0,482l639,-2l-1,-483l-638,3z" stroke-linecap="null" stroke-linejoin="null" stroke-width="5" stroke="#000000" fill="#ffffaa"/>
  <path id="svg_1" d="m180,301l-8,-66l86,-110l138,23l30,128l-148,50l-98,-25z" stroke-width="5" stroke="#000000" fill="#FF0000"/>
  <path id="svg_2" d="m259,124l-8,-83l129,-16l78,29l-20,61l-42,33l-137,-24z" stroke-width="5" stroke="#000000" fill="#FF0000"/>
  <path id="svg_3" d="m260,122l-87,115l-112,-46l-8,-62l25,-77l83,-7l87,-5l12,82z" stroke-width="5" stroke="#000000" fill="#FF0000"/>
  <path id="svg_4" d="m62,190l111,47l8,62l-54,60l-73,-37l-32,-46l-4,-38l44,-48z" stroke-width="5" stroke="#000000" fill="#FF0000"/>
  <path id="svg_5" d="m125,358l-13,88l87,12l53,6l23,-44l15,-37l-2,-24l-11,-33l-97,-25l-55,57z" stroke-width="5" stroke="#000000" fill="#FF0000"/>
  <path id="svg_6" d="m277,330l149,-55l46,-1l35,36l24,53l-53,41l-65,26l-69,-26l-34,-7l-22,-15l-1,-18l-10,-34z" stroke-width="5" stroke="#000000" fill="#FF0000"/>
  <path id="svg_7" d="m397,151l41,-36l60,-25l53,47l50,30l-9,81l-78,7l-55,-25l13,43l-45,-1l-30,-121z" stroke-width="5" stroke="#000000" fill="#FF0000"/>
  <path id="svg_8" d="m532,364l84,71l16,-104l2,-85l-44,2l-76,7l-53,-23l11,45l37,34l23,53z" stroke-width="5" stroke="#000000" fill="#FF0000"/>
  <ellipse ry="9" rx="10" id="svg_9" cy="231" cx="290" stroke-width="5" stroke="#000000" fill="#ffffff"/>
  <ellipse id="svg_10" ry="9" rx="10" cy="129" cx="149" stroke-width="5" stroke="#000000" fill="#ffffff"/>
  <ellipse id="svg_11" ry="9" rx="10" cy="85" cx="349" stroke-width="5" stroke="#000000" fill="#ffffff"/>
  <ellipse id="svg_12" ry="9" rx="10" cy="181" cx="502" stroke-width="5" stroke="#000000" fill="#ffffff"/>
  <ellipse id="svg_13" ry="9" rx="10" cy="386" cx="599" stroke-width="5" stroke="#000000" fill="#ffffff"/>
  <ellipse id="svg_14" ry="9" rx="10" cy="383" cx="412" stroke-width="5" stroke="#000000" fill="#ffffff"/>
  <ellipse id="svg_15" ry="9" rx="10" cy="408" cx="191" stroke-width="5" stroke="#000000" fill="#ffffff"/>
  <ellipse id="svg_16" ry="9" rx="10" cy="270" cx="97" stroke-width="5" stroke="#000000" fill="#ffffff"/>
  <ellipse ry="5" rx="5" id="svg_17" cy="178" cx="277" stroke-linecap="null" stroke-linejoin="null" stroke-width="5" stroke="#000000" fill="#ffffff"/>
  <ellipse id="svg_18" ry="5" rx="5" cy="248" cx="385" stroke-linecap="null" stroke-linejoin="null" stroke-width="5" stroke="#000000" fill="#ffffff"/>
  <ellipse id="svg_19" ry="5" rx="5" cy="285" cx="225" stroke-linecap="null" stroke-linejoin="null" stroke-width="5" stroke="#000000" fill="#ffffff"/>
  <ellipse id="svg_20" ry="5" rx="5" cy="247" cx="201" stroke-linecap="null" stroke-linejoin="null" stroke-width="5" stroke="#000000" fill="#ffffff"/>
  <ellipse id="svg_21" ry="5" rx="5" cy="257" cx="147" stroke-linecap="null" stroke-linejoin="null" stroke-width="5" stroke="#000000" fill="#ffffff"/>
  <ellipse id="svg_22" ry="5" rx="5" cy="306" cx="137" stroke-linecap="null" stroke-linejoin="null" stroke-width="5" stroke="#000000" fill="#ffffff"/>
  <ellipse id="svg_23" ry="5" rx="5" cy="336" cx="166" stroke-linecap="null" stroke-linejoin="null" stroke-width="5" stroke="#000000" fill="#ffffff"/>
  <ellipse id="svg_24" ry="5" rx="5" cy="386" cx="217" stroke-linecap="null" stroke-linejoin="null" stroke-width="5" stroke="#000000" fill="#ffffff"/>
  <ellipse id="svg_25" ry="5" rx="5" cy="167" cx="89" stroke-linecap="null" stroke-linejoin="null" stroke-width="5" stroke="#000000" fill="#ffffff"/>
  <ellipse id="svg_26" ry="5" rx="5" cy="100" cx="138" stroke-linecap="null" stroke-linejoin="null" stroke-width="5" stroke="#000000" fill="#ffffff"/>
  <ellipse id="svg_27" ry="5" rx="5" cy="146" cx="114" stroke-linecap="null" stroke-linejoin="null" stroke-width="5" stroke="#000000" fill="#ffffff"/>
  <ellipse id="svg_28" ry="5" rx="5" cy="64" cx="228" stroke-linecap="null" stroke-linejoin="null" stroke-width="5" stroke="#000000" fill="#ffffff"/>
  <ellipse id="svg_29" ry="5" rx="5" cy="90" cx="286" stroke-linecap="null" stroke-linejoin="null" stroke-width="5" stroke="#000000" fill="#ffffff"/>
  <ellipse id="svg_30" ry="5" rx="5" cy="78" cx="421" stroke-linecap="null" stroke-linejoin="null" stroke-width="5" stroke="#000000" fill="#ffffff"/>
  <ellipse id="svg_31" ry="5" rx="5" cy="295" cx="169" stroke-linecap="null" stroke-linejoin="null" stroke-width="5" stroke="#000000" fill="#ffffff"/>
  <ellipse id="svg_32" ry="5" rx="5" cy="345" cx="310" stroke-linecap="null" stroke-linejoin="null" stroke-width="5" stroke="#000000" fill="#ffffff"/>
  <ellipse id="svg_33" ry="5" rx="5" cy="259" cx="484" stroke-linecap="null" stroke-linejoin="null" stroke-width="5" stroke="#000000" fill="#ffffff"/>
  <ellipse id="svg_34" ry="5" rx="5" cy="248" cx="441" stroke-linecap="null" stroke-linejoin="null" stroke-width="5" stroke="#000000" fill="#ffffff"/>
  <ellipse id="svg_35" ry="5" rx="5" cy="321" cx="613" stroke-linecap="null" stroke-linejoin="null" stroke-width="5" stroke="#000000" fill="#ffffff"/>
  <ellipse id="svg_36" ry="5" rx="5" cy="132" cx="386" stroke-linecap="null" stroke-linejoin="null" stroke-width="5" stroke="#000000" fill="#ffffff"/>
  <path id="svg_38" d="m531,364l-54,43l-63,24l-2,47l231,1l-2,-42l-25,-1l-85,-72z" stroke-linecap="null" stroke-linejoin="null" stroke-width="5" stroke="#000000" fill="#007fff"/>
 </g>
</svg>