<svg xmlns="http://www.w3.org/2000/svg" xmlns:xlink="http://www.w3.org/1999/xlink" width="101" height="98" viewBox="0 0 101 98">
    <defs>
        <path id="b" d="M226.198-394.613h77.486c1.338 0 1.823.14 2.311.4.49.262.873.646 1.134 1.135.262.489.401.973.401 2.31V73.359c0 1.168-.097 1.592-.292 2.035a2.7 2.7 0 0 1-.873 1.098c-.387.289-.779.479-1.916.742l-38.734 8.948c-.542.125-.714.157-.91.178-.197.021-.374.02-.57-.001-.197-.022-.369-.055-.91-.182l-37.907-8.933c-1.133-.267-1.522-.458-1.908-.747a2.7 2.7 0 0 1-.868-1.097c-.193-.441-.29-.864-.29-2.029v-464.137c0-1.338.14-1.822.4-2.311a2.726 2.726 0 0 1 1.135-1.134c.489-.262.974-.401 2.31-.401z"/>
        <filter id="a" width="132.9%" height="105.8%" x="-16.4%" y="-2.1%" filterUnits="objectBoundingBox">
            <feOffset dy="4" in="SourceAlpha" result="shadowOffsetOuter1"/>
            <feGaussianBlur in="shadowOffsetOuter1" result="shadowBlurOuter1" stdDeviation="4"/>
            <feColorMatrix in="shadowBlurOuter1" values="0 0 0 0 0.2 0 0 0 0 0.129411765 0 0 0 0 0.133333333 0 0 0 0.3 0"/>
        </filter>
    </defs>
    <g fill="none" fill-rule="evenodd" transform="translate(-214)">
        <use fill="#000" filter="url(#a)" xlink:href="#b"/>
        <use fill="#EBEBE6" xlink:href="#b"/>
    </g>
</svg>
