<svg xmlns="http://www.w3.org/2000/svg" xmlns:xlink="http://www.w3.org/1999/xlink" width="24" height="24" viewBox="0 0 24 24">
    <defs>
        <path id="a" d="M20.337 9.029l-5.073-.749-2.267-4.654a1.106 1.106 0 0 0-1.994 0L8.736 8.28l-5.073.749c-.91.134-1.274 1.269-.614 1.92l3.67 3.62-.868 5.115c-.157.924.805 1.617 1.61 1.184L12 18.453l4.538 2.415c.806.429 1.768-.26 1.611-1.184l-.868-5.115 3.67-3.62c.66-.651.296-1.786-.614-1.92zm-4.844 4.95l.823 4.864L12 16.548l-4.316 2.295.823-4.865-3.493-3.445 4.826-.71L12 5.394l2.16 4.43 4.826.71-3.493 3.444z"/>
    </defs>
    <g fill="none" fill-rule="evenodd">
        <mask id="b" fill="#fff">
            <use xlink:href="#a"/>
        </mask>
        <use fill="#000" fill-rule="nonzero" xlink:href="#a"/>
        <g fill="#9D0B0E" mask="url(#b)">
            <path d="M0 0h24v24H0z"/>
        </g>
    </g>
</svg>
