<?xml version="1.0" encoding="utf-8"?>
<!-- Generator: Adobe Illustrator 16.0.2, SVG Export Plug-In . SVG Version: 6.00 Build 0)  -->
<!DOCTYPE svg PUBLIC "-//W3C//DTD SVG 1.1//EN" "http://www.w3.org/Graphics/SVG/1.1/DTD/svg11.dtd">
<svg version="1.1" id="Layer_1" xmlns="http://www.w3.org/2000/svg" xmlns:xlink="http://www.w3.org/1999/xlink" x="0px" y="0px"
	 width="281.169px" height="235.488px" viewBox="0 0 281.169 235.488" enable-background="new 0 0 281.169 235.488"
	 xml:space="preserve">
<g>
	<g>
		<path fill="#70A12A" d="M76.021,124.092c-0.408-0.344-1.068-1.134-1.961-2.347l-4.934-6.739c4.68-0.808,7.052-3.334,7.052-7.513
			c0-1.254-0.25-2.449-0.744-3.555c-0.526-1.152-1.333-2.077-2.398-2.75c-0.905-0.576-1.982-0.985-3.203-1.217
			c-1.207-0.227-2.849-0.341-4.88-0.341h-16.93v1.042l0.186,0.05c0.419,0.111,0.708,0.251,0.856,0.413
			c0.138,0.152,0.208,0.393,0.208,0.714v21.675c0,0.31-0.07,0.543-0.208,0.693c-0.103,0.113-0.335,0.276-0.857,0.415l-0.186,0.05
			v1.041h8.82v-1.045l-0.19-0.047c-0.405-0.101-0.688-0.236-0.841-0.403c-0.147-0.161-0.219-0.392-0.219-0.704v-8.244h6.739
			l5.323,7.433c0.829,1.168,0.871,1.444,0.871,1.487c0,0.256-0.425,0.373-0.782,0.428l-0.213,0.031v1.064h10.133v-1.084
			l-0.234-0.015C76.866,124.589,76.405,124.415,76.021,124.092z M55.591,104.348h8.735c1.339,0,2.278,0.034,2.789,0.102
			c0.497,0.065,0.971,0.217,1.412,0.451c0.908,0.472,1.349,1.307,1.349,2.554c0,1.248-0.441,2.083-1.349,2.554
			c-0.429,0.223-0.907,0.372-1.423,0.443c-0.531,0.073-1.466,0.11-2.778,0.11h-8.735V104.348z"/>
		<path fill="#70A12A" d="M216.213,102.861c-2.757-2.443-6.535-3.682-11.23-3.682c-6.262,0.076-10.783,2.203-13.439,6.321
			c-1.387,2.156-2.091,4.567-2.091,7.167c0,1.776,0.342,3.493,1.017,5.104c0.768,1.828,1.906,3.416,3.387,4.721
			c2.757,2.443,6.515,3.683,11.168,3.683c6.212,0,10.748-2.133,13.48-6.339c1.402-2.156,2.112-4.511,2.112-7
			C220.617,108.78,219.135,105.424,216.213,102.861z M213.496,116.137c-0.517,1.207-1.271,2.241-2.24,3.074
			c-1.628,1.402-3.718,2.112-6.211,2.112c-2.494,0-4.591-0.711-6.231-2.113c-1.939-1.652-2.922-3.851-2.922-6.534
			c0-2.683,0.982-4.881,2.923-6.534c1.64-1.402,3.722-2.113,6.191-2.113c2.495,0.024,4.599,0.736,6.254,2.116
			c1.938,1.603,2.921,3.838,2.921,6.643C214.18,113.934,213.95,115.061,213.496,116.137z"/>
		<path fill="#70A12A" d="M109.593,102.861c-2.758-2.443-6.535-3.682-11.23-3.682c-6.262,0.076-10.783,2.203-13.439,6.321
			c-1.388,2.156-2.091,4.567-2.091,7.167c0,1.776,0.342,3.493,1.017,5.104c0.766,1.826,1.905,3.415,3.386,4.721
			c2.757,2.443,6.515,3.683,11.169,3.683c6.211,0,10.746-2.133,13.479-6.339c1.402-2.157,2.113-4.512,2.113-7
			C113.997,108.78,112.515,105.424,109.593,102.861z M106.875,116.137c-0.517,1.207-1.271,2.241-2.24,3.074
			c-1.627,1.402-3.717,2.112-6.211,2.112s-4.59-0.711-6.232-2.113c-1.939-1.653-2.923-3.852-2.923-6.534
			c0-2.682,0.983-4.88,2.923-6.534c1.64-1.402,3.723-2.113,6.192-2.113c2.495,0.024,4.599,0.736,6.254,2.116
			c1.937,1.602,2.919,3.837,2.919,6.643C107.559,113.937,107.329,115.063,106.875,116.137z"/>
		<path fill="#70A12A" d="M178.979,108.444l0.863,0.55l3.994-5.75l-0.881-0.586l-0.145,0.128c-0.413,0.369-0.636,0.424-0.731,0.424
			c-0.067,0-0.402-0.062-1.853-0.85c-2.27-1.252-4.193-2.105-5.717-2.534c-1.525-0.43-3.375-0.648-5.498-0.648
			c-5.792,0-10.188,1.765-13.063,5.247c-1.917,2.323-2.89,5.096-2.89,8.24c0,2.308,0.543,4.45,1.613,6.365
			c0.928,1.677,2.215,3.1,3.824,4.226c2.727,1.935,6.258,2.916,10.497,2.916c2.124,0,3.983-0.222,5.526-0.658
			s3.463-1.288,5.708-2.531c1.452-0.808,1.784-0.871,1.852-0.871c0.096,0,0.317,0.055,0.731,0.425l0.145,0.13l0.881-0.589
			l-3.998-5.746l-0.859,0.582L179,117.07c0.023,0.174,0.036,0.325,0.036,0.454c0,0.294-0.136,0.57-0.413,0.843
			c-0.308,0.301-0.874,0.675-1.684,1.112c-2.256,1.224-4.68,1.845-7.205,1.845c-2.973,0-5.371-0.719-7.128-2.138
			c-2.063-1.651-3.109-3.842-3.109-6.51s1.046-4.858,3.11-6.512c1.756-1.417,4.154-2.135,7.127-2.135
			c2.524,0,4.949,0.619,7.207,1.838c0.807,0.434,1.373,0.806,1.682,1.107c0.277,0.271,0.413,0.546,0.413,0.839
			c0,0.129-0.013,0.285-0.037,0.473L178.979,108.444z"/>
		<path fill="#70A12A" d="M142.334,107.914l0.916,0.501l3.419-6.474l-0.913-0.474l-0.127,0.101
			c-0.318,0.251-0.588,0.379-0.803,0.379c-0.049,0-0.286-0.03-1.293-0.416c-2.205-0.892-4.07-1.514-5.546-1.848
			c-1.482-0.335-3.104-0.505-4.821-0.505c-4.107,0-7.239,0.963-9.309,2.861c-1.597,1.457-2.406,3.325-2.406,5.552
			c0,1.355,0.321,2.573,0.954,3.619c0.7,1.164,1.675,2.049,2.899,2.63c0.848,0.407,1.708,0.707,2.555,0.892
			c0.838,0.183,2.287,0.376,4.306,0.577l3.007,0.3c1.987,0.209,3.32,0.437,3.961,0.676c0.851,0.325,1.264,0.842,1.264,1.582
			c0,0.502-0.186,0.995-0.553,1.466c-0.376,0.482-0.891,0.877-1.527,1.171c-2.285,1.044-5.679,1.115-9.297,0.041
			c-1.729-0.513-3.019-1.127-3.835-1.826c-0.506-0.428-0.751-0.875-0.751-1.365v-0.404l-0.938-0.436l-3.098,6.729l0.922,0.458
			l0.124-0.093c0.456-0.345,0.621-0.362,0.648-0.362c0.043,0.002,0.257,0.043,1.204,0.464c3.455,1.634,7.006,2.462,10.556,2.462
			c1.981,0,3.863-0.236,5.591-0.701c2.344-0.623,4.101-1.602,5.223-2.908c1.246-1.438,1.877-3.107,1.877-4.959
			c0-1.171-0.269-2.288-0.799-3.319c-0.533-1.033-1.266-1.876-2.183-2.509c-0.887-0.598-1.919-1.069-3.068-1.401
			c-1.133-0.327-2.636-0.588-4.469-0.777l-3.066-0.3c-2.037-0.198-3.376-0.384-3.979-0.553c-1.101-0.319-1.636-0.883-1.636-1.727
			c0-0.525,0.211-1.002,0.645-1.458c0.444-0.467,1.036-0.823,1.757-1.058c1.027-0.315,2.231-0.475,3.58-0.475
			c3.061,0,5.761,0.768,8.029,2.285c0.666,0.429,1.018,0.829,1.018,1.158c0,0.069-0.006,0.161-0.018,0.275L142.334,107.914z"/>
	</g>
	<path fill="#70A12A" d="M209.589,146.559l2.849-6.258l2.852,6.258H209.589z M216.862,150.037c0.135,0.283,0.203,0.477,0.203,0.574
		c0,0.223-0.18,0.359-0.539,0.408v0.297h3.006v-0.297c-0.353-0.086-0.582-0.191-0.687-0.314c-0.104-0.125-0.321-0.541-0.649-1.254
		l-4.443-9.646c-0.112-0.242-0.167-0.396-0.167-0.465c0-0.16,0.151-0.291,0.454-0.391v-0.295h-3.08v0.295
		c0.303,0.082,0.455,0.201,0.455,0.363c0,0.086-0.057,0.25-0.168,0.492l-4.639,10.01c-0.217,0.475-0.391,0.785-0.523,0.928
		s-0.326,0.234-0.58,0.277v0.297h2.824v-0.297c-0.365-0.063-0.549-0.186-0.549-0.371c0-0.092,0.053-0.252,0.158-0.482l1.113-2.402
		h6.773L216.862,150.037z M201.532,139.609c-0.211,0.234-0.356,0.352-0.437,0.352c-0.043,0-0.121-0.029-0.231-0.092
		c-1.695-0.959-3.449-1.438-5.26-1.438c-2.74,0-4.797,0.871-6.171,2.615c-0.878,1.113-1.317,2.432-1.317,3.951
		c0,1.932,0.703,3.518,2.106,4.76c1.336,1.188,3.071,1.781,5.205,1.781c1.106,0,2.121-0.156,3.043-0.473
		c0.444-0.15,0.854-0.33,1.229-0.545c0.373-0.213,0.846-0.535,1.414-0.963c0.168-0.129,0.285-0.195,0.353-0.195
		c0.112,0,0.254,0.078,0.427,0.234l0.232-0.188l-1.651-2.004l-0.223,0.176c0.104,0.199,0.157,0.34,0.157,0.428
		c0,0.174-0.272,0.467-0.816,0.881c-1.206,0.92-2.598,1.379-4.175,1.379c-1.614,0-2.972-0.498-4.072-1.494
		c-1.138-1.018-1.707-2.301-1.707-3.846c0-1.551,0.547-2.814,1.642-3.791c1.076-0.957,2.48-1.438,4.213-1.438
		c1.285,0,2.473,0.268,3.562,0.799c0.792,0.383,1.188,0.701,1.188,0.955c0,0.105-0.028,0.25-0.084,0.436l0.25,0.148l1.373-2.291
		L201.532,139.609z M181.003,150.77c-0.078,0.105-0.237,0.188-0.478,0.25v0.297h2.644v-0.297c-0.241-0.063-0.4-0.145-0.478-0.25
		c-0.078-0.105-0.117-0.287-0.117-0.547v-10.475c0-0.26,0.041-0.441,0.121-0.547s0.238-0.189,0.474-0.252v-0.295h-2.644v0.295
		c0.234,0.057,0.393,0.139,0.473,0.246c0.08,0.109,0.121,0.293,0.121,0.553v10.475C181.12,150.482,181.081,150.664,181.003,150.77
		 M175.375,139.859c0.26,0,0.444,0.039,0.552,0.117c0.107,0.08,0.189,0.238,0.246,0.477h0.297v-2.393h-0.297
		c-0.057,0.236-0.139,0.395-0.246,0.475c-0.107,0.078-0.292,0.119-0.552,0.119h-10.029c-0.26,0-0.444-0.041-0.552-0.119
		c-0.108-0.08-0.189-0.238-0.246-0.475h-0.297v2.393h0.297c0.057-0.238,0.138-0.396,0.246-0.477
		c0.107-0.078,0.292-0.117,0.552-0.117h4.286v10.363c0,0.26-0.04,0.441-0.12,0.547c-0.081,0.105-0.239,0.188-0.474,0.25v0.297h2.644
		v-0.297c-0.235-0.063-0.392-0.146-0.473-0.254c-0.08-0.109-0.12-0.289-0.12-0.543v-10.363H175.375z M159.907,139.309
		c-0.191,0.25-0.344,0.375-0.455,0.375c-0.049,0-0.176-0.043-0.381-0.131c-0.914-0.412-1.735-0.701-2.463-0.869
		c-0.727-0.168-1.514-0.252-2.361-0.252c-1.038,0-1.994,0.133-2.866,0.402s-1.556,0.639-2.05,1.109
		c-0.668,0.643-1.002,1.412-1.002,2.309c0,0.527,0.127,1.012,0.385,1.457c0.257,0.445,0.605,0.791,1.044,1.039
		c0.47,0.268,1.006,0.459,1.608,0.576c0.604,0.117,1.438,0.197,2.502,0.24c1.49,0.057,2.395,0.098,2.713,0.125
		c0.318,0.029,0.627,0.096,0.923,0.201c0.922,0.314,1.383,0.887,1.383,1.715c0,0.631-0.269,1.176-0.808,1.633
		c-0.811,0.688-1.998,1.031-3.563,1.031c-0.773,0-1.488-0.082-2.148-0.246c-0.657-0.164-1.342-0.432-2.053-0.803
		c-0.793-0.414-1.188-0.721-1.188-0.918c0-0.088,0.059-0.256,0.176-0.502l-0.259-0.148l-1.393,2.328l0.25,0.158
		c0.198-0.223,0.344-0.334,0.437-0.334c0.056,0,0.237,0.07,0.548,0.213c1.107,0.582,2.059,0.98,2.857,1.197
		c0.797,0.217,1.731,0.324,2.802,0.324c1.854,0,3.312-0.406,4.37-1.225c0.951-0.73,1.428-1.666,1.428-2.811
		c0-1.199-0.525-2.094-1.577-2.682c-0.396-0.223-0.899-0.379-1.512-0.469c-0.612-0.088-1.63-0.156-3.052-0.199
		c-1.027-0.031-1.769-0.076-2.223-0.133c-0.455-0.061-0.849-0.166-1.183-0.32c-0.304-0.135-0.547-0.342-0.733-0.615
		c-0.186-0.275-0.277-0.566-0.277-0.875c0-0.369,0.119-0.723,0.356-1.057c0.238-0.332,0.562-0.604,0.97-0.813
		c0.848-0.428,1.842-0.641,2.987-0.641c1.392,0,2.709,0.291,3.952,0.873c0.457,0.215,0.686,0.416,0.686,0.604
		c0,0.066-0.052,0.24-0.156,0.518l0.259,0.141l1.327-2.396L159.907,139.309z M138.362,140.102c0.693,0.229,1.342,0.627,1.948,1.195
		c1.009,0.953,1.513,2.205,1.513,3.758c0,1.436-0.504,2.641-1.513,3.617c-1.106,1.064-2.622,1.598-4.546,1.598
		c-1.917,0-3.426-0.533-4.527-1.598c-1.014-0.977-1.521-2.207-1.521-3.691c0-1.479,0.507-2.705,1.521-3.684
		c1.107-1.063,2.61-1.596,4.509-1.596C136.723,139.707,137.595,139.842,138.362,140.102 M132.369,139.006
		c-1.361,0.525-2.412,1.361-3.154,2.506c-0.681,1.057-1.021,2.213-1.021,3.469c0,0.848,0.158,1.654,0.473,2.422
		c0.39,0.934,0.965,1.729,1.726,2.383c1.36,1.17,3.151,1.754,5.371,1.754c1.268,0,2.403-0.191,3.405-0.574
		c1.342-0.514,2.391-1.352,3.146-2.516c0.687-1.051,1.029-2.18,1.029-3.385c0-0.891-0.158-1.723-0.473-2.496
		c-0.385-0.941-0.959-1.734-1.727-2.385c-1.367-1.168-3.166-1.752-5.399-1.752C134.447,138.449,133.321,138.641,132.369,139.006
		 M120.454,149.973c0.259,0.309,0.389,0.531,0.389,0.668c0,0.178-0.142,0.305-0.427,0.379v0.297h2.924v-0.297
		c-0.235-0.063-0.393-0.145-0.473-0.25c-0.081-0.105-0.121-0.287-0.121-0.547v-10.475c0-0.26,0.04-0.443,0.121-0.553
		c0.08-0.107,0.238-0.189,0.473-0.246v-0.295h-2.514v0.295c0.235,0.057,0.392,0.139,0.473,0.246c0.08,0.109,0.12,0.293,0.12,0.553
		v9.24l-7.633-8.924c-0.291-0.34-0.436-0.572-0.436-0.697c0-0.178,0.145-0.318,0.436-0.418v-0.295h-3.639v0.295
		c0.235,0.057,0.393,0.139,0.474,0.246c0.08,0.109,0.12,0.293,0.12,0.553v10.475c0,0.26-0.039,0.441-0.116,0.547
		c-0.077,0.105-0.236,0.188-0.478,0.25v0.297h2.515v-0.297c-0.236-0.063-0.393-0.146-0.474-0.254c-0.08-0.109-0.12-0.289-0.12-0.543
		v-9.965L120.454,149.973z M104.829,139.701c-0.204,0.26-0.355,0.391-0.454,0.391c-0.062,0-0.226-0.074-0.492-0.223
		c-0.915-0.514-1.769-0.883-2.561-1.104c-0.791-0.225-1.651-0.334-2.579-0.334c-1.057,0-2.047,0.164-2.968,0.49
		c-1.305,0.471-2.345,1.217-3.118,2.236c-0.835,1.107-1.252,2.375-1.252,3.803c0,0.996,0.213,1.943,0.64,2.84
		c0.377,0.785,0.888,1.461,1.531,2.021c1.305,1.146,3.015,1.717,5.13,1.717c1.72,0,3.25-0.377,4.593-1.131
		c0.618-0.346,1.277-0.832,1.976-1.457v-0.26c-0.236-0.063-0.393-0.146-0.474-0.25c-0.08-0.105-0.12-0.287-0.12-0.547v-1.643
		c0-0.26,0.04-0.441,0.12-0.549c0.081-0.104,0.238-0.188,0.474-0.25v-0.297h-4.982c-0.26,0-0.444-0.039-0.552-0.121
		c-0.109-0.08-0.191-0.238-0.246-0.473h-0.297v2.395h0.297c0.055-0.234,0.137-0.393,0.246-0.473
		c0.108-0.082,0.292-0.121,0.552-0.121h2.996v2.338c-0.544,0.494-1.214,0.879-2.008,1.154c-0.795,0.275-1.632,0.414-2.51,0.414
		c-1.664,0-3.03-0.449-4.1-1.344c-1.163-0.971-1.745-2.275-1.745-3.912c0-1.682,0.609-3.016,1.827-4.004
		c1.064-0.871,2.371-1.309,3.923-1.309c1.335,0,2.64,0.346,3.913,1.035c0.662,0.352,0.993,0.623,0.993,0.814
		c0,0.092-0.056,0.23-0.167,0.416l0.241,0.166l1.424-2.264L104.829,139.701z M78.715,146.559l2.848-6.258l2.852,6.258H78.715z
		 M85.986,150.037c0.136,0.283,0.204,0.477,0.204,0.574c0,0.223-0.179,0.359-0.539,0.408v0.297h3.006v-0.297
		c-0.353-0.086-0.582-0.191-0.687-0.314c-0.105-0.125-0.322-0.541-0.649-1.254l-4.444-9.646c-0.111-0.242-0.167-0.396-0.167-0.465
		c0-0.16,0.151-0.291,0.454-0.391v-0.295h-3.08v0.295c0.303,0.082,0.455,0.201,0.455,0.363c0,0.086-0.056,0.25-0.167,0.492
		l-4.639,10.01c-0.216,0.475-0.391,0.785-0.524,0.928c-0.133,0.143-0.326,0.234-0.58,0.277v0.297h2.825v-0.297
		c-0.366-0.063-0.549-0.186-0.549-0.371c0-0.092,0.052-0.252,0.158-0.482l1.113-2.402h6.774L85.986,150.037z M68.537,150.77
		c-0.078,0.105-0.237,0.188-0.478,0.25v0.297h2.644v-0.297c-0.241-0.063-0.401-0.145-0.478-0.25
		c-0.077-0.105-0.116-0.287-0.116-0.547v-10.475c0-0.26,0.04-0.441,0.121-0.547c0.08-0.105,0.238-0.189,0.473-0.252v-0.295h-2.644
		v0.295c0.235,0.057,0.392,0.139,0.473,0.246c0.08,0.109,0.12,0.293,0.12,0.553v10.475C68.652,150.482,68.614,150.664,68.537,150.77
		 M51.997,139.859h4.574c1.002,0,1.8,0.111,2.394,0.334c0.593,0.223,1.097,0.6,1.512,1.131c0.748,0.965,1.122,2.186,1.122,3.656
		c0,0.811-0.117,1.555-0.352,2.236c-0.359,1.02-0.922,1.777-1.689,2.271c-0.649,0.416-1.645,0.623-2.987,0.623h-4.574V139.859z
		 M50.411,150.779c-0.087,0.098-0.241,0.178-0.464,0.24v0.297h6.68c1.416,0,2.556-0.201,3.419-0.607c0.862-0.404,1.575-1.07,2.138-2
		c0.625-1.045,0.937-2.287,0.937-3.729c0-1.219-0.232-2.307-0.696-3.266c-0.532-1.096-1.305-1.904-2.319-2.432
		c-0.804-0.42-1.964-0.629-3.479-0.629h-6.68v0.295c0.223,0.063,0.377,0.145,0.464,0.242c0.087,0.1,0.13,0.242,0.13,0.426v10.734
		C50.542,150.537,50.498,150.68,50.411,150.779"/>
</g>
</svg>
